[generic] 239.3.1: Requesting header
WARNING: [generic] Could not send HEAD request to http://noeypszbgd.cn.zzmd.fun:8888/rtp/239.3.1.129:8008: Remote end closed connection without response
[generic] 239.3.1: Downloading webpage
WARNING: [generic] Falling back on generic information extractor.
WARNING: [generic] URL could be a direct video link, returning it as such.
[info] 239.3.1: Downloading 1 format(s): 0
[download] Destination: output.ts
WARNING: The video format is unknown. Trying to download as ts according to the filename
[h264 @ 0x55c2a19b0300] non-existing PPS 0 referenced
    Last message repeated 1 times
[h264 @ 0x55c2a19b0300] decode_slice_header error
[h264 @ 0x55c2a19b0300] no frame!
[h264 @ 0x55c2a19b0300] non-existing PPS 0 referenced
    Last message repeated 1 times
[h264 @ 0x55c2a19b0300] decode_slice_header error
[h264 @ 0x55c2a19b0300] no frame!
[h264 @ 0x55c2a19b0300] non-existing PPS 0 referenced
    Last message repeated 1 times
[h264 @ 0x55c2a19b0300] decode_slice_header error
[h264 @ 0x55c2a19b0300] no frame!
[h264 @ 0x55c2a19b0300] non-existing PPS 0 referenced
    Last message repeated 1 times
[h264 @ 0x55c2a19b0300] decode_slice_header error
[h264 @ 0x55c2a19b0300] no frame!
[h264 @ 0x55c2a19b0300] non-existing PPS 0 referenced
    Last message repeated 1 times
[h264 @ 0x55c2a19b0300] decode_slice_header error
[h264 @ 0x55c2a19b0300] no frame!
[h264 @ 0x55c2a19b0300] non-existing PPS 0 referenced
    Last message repeated 1 times
[h264 @ 0x55c2a19b0300] decode_slice_header error
[h264 @ 0x55c2a19b0300] no frame!
[h264 @ 0x55c2a19b0300] non-existing PPS 0 referenced
    Last message repeated 1 times
[h264 @ 0x55c2a19b0300] decode_slice_header error
[h264 @ 0x55c2a19b0300] no frame!
[h264 @ 0x55c2a19b0300] non-existing PPS 0 referenced
    Last message repeated 1 times
[h264 @ 0x55c2a19b0300] decode_slice_header error
[h264 @ 0x55c2a19b0300] no frame!
[mpegts @ 0x55c2a19a57c0] Packet corrupt (stream = 0, dts = 3564808480).
[h264 @ 0x55c2a19b0300] non-existing PPS 0 referenced
    Last message repeated 1 times
[h264 @ 0x55c2a19b0300] decode_slice_header error
[h264 @ 0x55c2a19b0300] no frame!
[h264 @ 0x55c2a19b0300] non-existing PPS 0 referenced
    Last message repeated 1 times
[h264 @ 0x55c2a19b0300] decode_slice_header error
[h264 @ 0x55c2a19b0300] no frame!
[mpegts @ 0x55c2a19a57c0] Packet corrupt (stream = 0, dts = 3565049680).
[h264 @ 0x55c2a19b0300] non-existing PPS 0 referenced
    Last message repeated 1 times
[h264 @ 0x55c2a19b0300] decode_slice_header error
[h264 @ 0x55c2a19b0300] no frame!
[h264 @ 0x55c2a19b0300] non-existing PPS 0 referenced
    Last message repeated 1 times
[h264 @ 0x55c2a19b0300] decode_slice_header error
[h264 @ 0x55c2a19b0300] no frame!
[mpegts @ 0x55c2a19a57c0] Packet corrupt (stream = 0, dts = 3565056880).
[h264 @ 0x55c2a19b0300] non-existing PPS 0 referenced
    Last message repeated 1 times
[h264 @ 0x55c2a19b0300] decode_slice_header error
[h264 @ 0x55c2a19b0300] no frame!
[mpegts @ 0x55c2a19a57c0] Packet corrupt (stream = 0, dts = 3565510480).
[h264 @ 0x55c2a19b0300] non-existing PPS 0 referenced
    Last message repeated 1 times
[h264 @ 0x55c2a19b0300] decode_slice_header error
[h264 @ 0x55c2a19b0300] no frame!
[mpegts @ 0x55c2a19a57c0] Packet corrupt (stream = 0, dts = 3565964080).
[h264 @ 0x55c2a19b0300] non-existing PPS 0 referenced
    Last message repeated 1 times
[h264 @ 0x55c2a19b0300] decode_slice_header error
[h264 @ 0x55c2a19b0300] no frame!
[h264 @ 0x55c2a19b0300] non-existing PPS 0 referenced
    Last message repeated 1 times
[h264 @ 0x55c2a19b0300] decode_slice_header error
[h264 @ 0x55c2a19b0300] no frame!
[h264 @ 0x55c2a19b0300] non-existing PPS 0 referenced
    Last message repeated 1 times
[h264 @ 0x55c2a19b0300] decode_slice_header error
[h264 @ 0x55c2a19b0300] no frame!
[mpegts @ 0x55c2a19a57c0] decoding for stream 0 failed
[mpegts @ 0x55c2a19a57c0] Could not find codec parameters for stream 0 (Video: h264 ([27][0][0][0] / 0x001B), none): unspecified size
Consider increasing the value for the 'analyzeduration' (0) and 'probesize' (5000000) options
Input #0, mpegts, from 'http://noeypszbgd.cn.zzmd.fun:8888/rtp/239.3.1.129:8008':
  Duration: N/A, start: 39608.583111, bitrate: N/A
  Program 1 
    Metadata:
      service_name    : 
      service_provider: 
  Stream #0:0[0x1011]: Video: h264 ([27][0][0][0] / 0x001B), none, 25 tbr, 90k tbn, 180k tbc
  Stream #0:1[0x1100]: Audio: mp2 ([3][0][0][0] / 0x0003), 48000 Hz, stereo, fltp, 192 kb/s
Output #0, mpegts, to 'file:output.ts.part':
  Metadata:
    encoder         : Lavf58.76.100
  Stream #0:0: Video: h264 ([27][0][0][0] / 0x001B), none, q=2-31, 25 tbr, 90k tbn, 90k tbc
  Stream #0:1: Audio: mp2 ([3][0][0][0] / 0x0003), 48000 Hz, stereo, fltp, 192 kb/s
Stream mapping:
  Stream #0:0 -> #0:0 (copy)
  Stream #0:1 -> #0:1 (copy)
Press [q] to stop, [?] for help
frame=    0 fps=0.0 q=-1.0 Lsize=       0kB time=00:00:00.00 bitrate=N/A speed=   0x    
video:0kB audio:0kB subtitle:0kB other streams:0kB global headers:0kB muxing overhead: unknown
Output file is empty, nothing was encoded (check -ss / -t / -frames parameters if used)
Exiting normally, received signal 15.
